<svg width="24" height="24" fill="currentColor" viewBox="0 0 24 24"><path d="M7.444 1.077c-1.17.055-1.97.242-2.668.517A5.383 5.383 0 0 0 2.83 2.866a5.388 5.388 0 0 0-1.265 1.95c-.271.7-.455 1.5-.506 2.67C1.007 8.659.996 9.035 1 12.022c.006 2.987.02 3.362.076 4.535.056 1.17.242 1.97.517 2.668a5.38 5.38 0 0 0 1.272 1.946c.612.61 1.225.985 1.951 1.265.7.27 1.5.455 2.67.506 1.171.052 1.548.064 4.534.058 2.987-.006 3.363-.02 4.536-.075 1.173-.055 1.968-.243 2.667-.516a5.39 5.39 0 0 0 1.946-1.273 5.389 5.389 0 0 0 1.265-1.95c.27-.7.455-1.5.506-2.67.051-1.175.063-1.55.057-4.536-.005-2.987-.019-3.361-.074-4.534-.056-1.173-.242-1.97-.517-2.67a5.4 5.4 0 0 0-1.272-1.945 5.369 5.369 0 0 0-1.95-1.265c-.7-.27-1.5-.455-2.671-.506-1.17-.05-1.548-.063-4.535-.058-2.988.006-3.362.019-4.535.076Zm.129 19.885c-1.073-.046-1.655-.224-2.043-.374a3.424 3.424 0 0 1-1.267-.82 3.388 3.388 0 0 1-.825-1.263c-.15-.388-.332-.97-.382-2.043-.055-1.159-.066-1.507-.073-4.444-.006-2.936.005-3.284.056-4.443.046-1.072.225-1.655.374-2.043.198-.515.436-.88.82-1.266.384-.387.75-.625 1.264-.826.387-.151.97-.331 2.041-.382 1.16-.055 1.508-.066 4.444-.072 2.937-.007 3.285.004 4.445.055 1.072.047 1.655.224 2.043.374.514.198.88.436 1.266.82.387.385.625.75.826 1.264.151.387.331.968.382 2.041.055 1.16.068 1.508.073 4.444.005 2.936-.005 3.285-.056 4.444-.047 1.073-.225 1.655-.374 2.044a3.41 3.41 0 0 1-.82 1.266c-.385.386-.75.625-1.264.825-.387.151-.97.332-2.041.383-1.16.054-1.508.066-4.445.072-2.938.006-3.284-.005-4.444-.056M16.54 6.121a1.32 1.32 0 1 0 2.64-.004 1.32 1.32 0 0 0-2.64.004Zm-10.188 5.89a5.648 5.648 0 1 0 11.296-.022 5.648 5.648 0 1 0-11.296.022Zm1.981-.004a3.667 3.667 0 1 1 7.334-.014 3.667 3.667 0 0 1-7.334.014Z"></path></svg>