<svg width="24" height="24" fill="currentColor" viewBox="0 0 24 24"><path d="M21.333 24H2.667A2.667 2.667 0 0 1 0 21.333V2.667A2.667 2.667 0 0 1 2.667 0h18.666A2.667 2.667 0 0 1 24 2.667v18.666A2.667 2.667 0 0 1 21.333 24Zm-4.228-3.333h3.562V13.35c0-3.095-1.755-4.592-4.206-4.592-2.452 0-3.484 1.91-3.484 1.91V9.11H9.544v11.556h3.433V14.6c0-1.626.748-2.593 2.18-2.593 1.316 0 1.948.93 1.948 2.593v6.066ZM3.333 5.466c0 1.177.948 2.132 2.117 2.132s2.116-.955 2.116-2.132A2.124 2.124 0 0 0 5.45 3.333c-1.17 0-2.117.955-2.117 2.133Zm3.923 15.2V9.112H3.677v11.556h3.58Z"></path></svg>